<svg width="326" height="158" viewBox="0 0 326 158" fill="none" xmlns="http://www.w3.org/2000/svg">
<g opacity="0.3">
<path d="M4 2C4 3.10457 3.10457 4 2 4C0.89543 4 0 3.10457 0 2C0 0.89543 0.89543 0 2 0C3.10457 0 4 0.89543 4 2Z" fill="#95A9F7"/>
<path d="M18 2C18 3.10457 17.1046 4 16 4C14.8954 4 14 3.10457 14 2C14 0.89543 14.8954 0 16 0C17.1046 0 18 0.89543 18 2Z" fill="#95A9F7"/>
<path d="M32 2C32 3.10457 31.1046 4 30 4C28.8954 4 28 3.10457 28 2C28 0.89543 28.8954 0 30 0C31.1046 0 32 0.89543 32 2Z" fill="#95A9F7"/>
<path d="M46 2C46 3.10457 45.1046 4 44 4C42.8954 4 42 3.10457 42 2C42 0.89543 42.8954 0 44 0C45.1046 0 46 0.89543 46 2Z" fill="#95A9F7"/>
<path d="M60 2C60 3.10457 59.1046 4 58 4C56.8954 4 56 3.10457 56 2C56 0.89543 56.8954 0 58 0C59.1046 0 60 0.89543 60 2Z" fill="#95A9F7"/>
<path d="M74 2C74 3.10457 73.1046 4 72 4C70.8954 4 70 3.10457 70 2C70 0.89543 70.8954 0 72 0C73.1046 0 74 0.89543 74 2Z" fill="#95A9F7"/>
<path d="M88 2C88 3.10457 87.1046 4 86 4C84.8954 4 84 3.10457 84 2C84 0.89543 84.8954 0 86 0C87.1046 0 88 0.89543 88 2Z" fill="#95A9F7"/>
<path d="M102 2C102 3.10457 101.105 4 100 4C98.8954 4 98 3.10457 98 2C98 0.89543 98.8954 0 100 0C101.105 0 102 0.89543 102 2Z" fill="#95A9F7"/>
<path d="M116 2C116 3.10457 115.105 4 114 4C112.895 4 112 3.10457 112 2C112 0.89543 112.895 0 114 0C115.105 0 116 0.89543 116 2Z" fill="#95A9F7"/>
<path d="M130 2C130 3.10457 129.105 4 128 4C126.895 4 126 3.10457 126 2C126 0.89543 126.895 0 128 0C129.105 0 130 0.89543 130 2Z" fill="#95A9F7"/>
<path d="M144 2C144 3.10457 143.105 4 142 4C140.895 4 140 3.10457 140 2C140 0.89543 140.895 0 142 0C143.105 0 144 0.89543 144 2Z" fill="#95A9F7"/>
<path d="M158 2C158 3.10457 157.105 4 156 4C154.895 4 154 3.10457 154 2C154 0.89543 154.895 0 156 0C157.105 0 158 0.89543 158 2Z" fill="#95A9F7"/>
<path d="M172 2C172 3.10457 171.105 4 170 4C168.895 4 168 3.10457 168 2C168 0.89543 168.895 0 170 0C171.105 0 172 0.89543 172 2Z" fill="#95A9F7"/>
<path d="M186 2C186 3.10457 185.105 4 184 4C182.895 4 182 3.10457 182 2C182 0.89543 182.895 0 184 0C185.105 0 186 0.89543 186 2Z" fill="#95A9F7"/>
<path d="M200 2C200 3.10457 199.105 4 198 4C196.895 4 196 3.10457 196 2C196 0.89543 196.895 0 198 0C199.105 0 200 0.89543 200 2Z" fill="#95A9F7"/>
<path d="M214 2C214 3.10457 213.105 4 212 4C210.895 4 210 3.10457 210 2C210 0.89543 210.895 0 212 0C213.105 0 214 0.89543 214 2Z" fill="#95A9F7"/>
<path d="M228 2C228 3.10457 227.105 4 226 4C224.895 4 224 3.10457 224 2C224 0.89543 224.895 0 226 0C227.105 0 228 0.89543 228 2Z" fill="#95A9F7"/>
<path d="M242 2C242 3.10457 241.105 4 240 4C238.895 4 238 3.10457 238 2C238 0.89543 238.895 0 240 0C241.105 0 242 0.89543 242 2Z" fill="#95A9F7"/>
<path d="M256 2C256 3.10457 255.105 4 254 4C252.895 4 252 3.10457 252 2C252 0.89543 252.895 0 254 0C255.105 0 256 0.89543 256 2Z" fill="#95A9F7"/>
<path d="M270 2C270 3.10457 269.105 4 268 4C266.895 4 266 3.10457 266 2C266 0.89543 266.895 0 268 0C269.105 0 270 0.89543 270 2Z" fill="#95A9F7"/>
<path d="M284 2C284 3.10457 283.105 4 282 4C280.895 4 280 3.10457 280 2C280 0.89543 280.895 0 282 0C283.105 0 284 0.89543 284 2Z" fill="#95A9F7"/>
<path d="M298 2C298 3.10457 297.105 4 296 4C294.895 4 294 3.10457 294 2C294 0.89543 294.895 0 296 0C297.105 0 298 0.89543 298 2Z" fill="#95A9F7"/>
<path d="M312 2C312 3.10457 311.105 4 310 4C308.895 4 308 3.10457 308 2C308 0.89543 308.895 0 310 0C311.105 0 312 0.89543 312 2Z" fill="#95A9F7"/>
<path d="M326 2C326 3.10457 325.105 4 324 4C322.895 4 322 3.10457 322 2C322 0.89543 322.895 0 324 0C325.105 0 326 0.89543 326 2Z" fill="#95A9F7"/>
<path d="M4 16C4 17.1046 3.10457 18 2 18C0.89543 18 0 17.1046 0 16C0 14.8954 0.89543 14 2 14C3.10457 14 4 14.8954 4 16Z" fill="#95A9F7"/>
<path d="M18 16C18 17.1046 17.1046 18 16 18C14.8954 18 14 17.1046 14 16C14 14.8954 14.8954 14 16 14C17.1046 14 18 14.8954 18 16Z" fill="#95A9F7"/>
<path d="M32 16C32 17.1046 31.1046 18 30 18C28.8954 18 28 17.1046 28 16C28 14.8954 28.8954 14 30 14C31.1046 14 32 14.8954 32 16Z" fill="#95A9F7"/>
<path d="M46 16C46 17.1046 45.1046 18 44 18C42.8954 18 42 17.1046 42 16C42 14.8954 42.8954 14 44 14C45.1046 14 46 14.8954 46 16Z" fill="#95A9F7"/>
<path d="M60 16C60 17.1046 59.1046 18 58 18C56.8954 18 56 17.1046 56 16C56 14.8954 56.8954 14 58 14C59.1046 14 60 14.8954 60 16Z" fill="#95A9F7"/>
<path d="M74 16C74 17.1046 73.1046 18 72 18C70.8954 18 70 17.1046 70 16C70 14.8954 70.8954 14 72 14C73.1046 14 74 14.8954 74 16Z" fill="#95A9F7"/>
<path d="M88 16C88 17.1046 87.1046 18 86 18C84.8954 18 84 17.1046 84 16C84 14.8954 84.8954 14 86 14C87.1046 14 88 14.8954 88 16Z" fill="#95A9F7"/>
<path d="M102 16C102 17.1046 101.105 18 100 18C98.8954 18 98 17.1046 98 16C98 14.8954 98.8954 14 100 14C101.105 14 102 14.8954 102 16Z" fill="#95A9F7"/>
<path d="M116 16C116 17.1046 115.105 18 114 18C112.895 18 112 17.1046 112 16C112 14.8954 112.895 14 114 14C115.105 14 116 14.8954 116 16Z" fill="#95A9F7"/>
<path d="M130 16C130 17.1046 129.105 18 128 18C126.895 18 126 17.1046 126 16C126 14.8954 126.895 14 128 14C129.105 14 130 14.8954 130 16Z" fill="#95A9F7"/>
<path d="M144 16C144 17.1046 143.105 18 142 18C140.895 18 140 17.1046 140 16C140 14.8954 140.895 14 142 14C143.105 14 144 14.8954 144 16Z" fill="#95A9F7"/>
<path d="M158 16C158 17.1046 157.105 18 156 18C154.895 18 154 17.1046 154 16C154 14.8954 154.895 14 156 14C157.105 14 158 14.8954 158 16Z" fill="#95A9F7"/>
<path d="M172 16C172 17.1046 171.105 18 170 18C168.895 18 168 17.1046 168 16C168 14.8954 168.895 14 170 14C171.105 14 172 14.8954 172 16Z" fill="#95A9F7"/>
<path d="M186 16C186 17.1046 185.105 18 184 18C182.895 18 182 17.1046 182 16C182 14.8954 182.895 14 184 14C185.105 14 186 14.8954 186 16Z" fill="#95A9F7"/>
<path d="M200 16C200 17.1046 199.105 18 198 18C196.895 18 196 17.1046 196 16C196 14.8954 196.895 14 198 14C199.105 14 200 14.8954 200 16Z" fill="#95A9F7"/>
<path d="M214 16C214 17.1046 213.105 18 212 18C210.895 18 210 17.1046 210 16C210 14.8954 210.895 14 212 14C213.105 14 214 14.8954 214 16Z" fill="#95A9F7"/>
<path d="M228 16C228 17.1046 227.105 18 226 18C224.895 18 224 17.1046 224 16C224 14.8954 224.895 14 226 14C227.105 14 228 14.8954 228 16Z" fill="#95A9F7"/>
<path d="M242 16C242 17.1046 241.105 18 240 18C238.895 18 238 17.1046 238 16C238 14.8954 238.895 14 240 14C241.105 14 242 14.8954 242 16Z" fill="#95A9F7"/>
<path d="M256 16C256 17.1046 255.105 18 254 18C252.895 18 252 17.1046 252 16C252 14.8954 252.895 14 254 14C255.105 14 256 14.8954 256 16Z" fill="#95A9F7"/>
<path d="M270 16C270 17.1046 269.105 18 268 18C266.895 18 266 17.1046 266 16C266 14.8954 266.895 14 268 14C269.105 14 270 14.8954 270 16Z" fill="#95A9F7"/>
<path d="M284 16C284 17.1046 283.105 18 282 18C280.895 18 280 17.1046 280 16C280 14.8954 280.895 14 282 14C283.105 14 284 14.8954 284 16Z" fill="#95A9F7"/>
<path d="M298 16C298 17.1046 297.105 18 296 18C294.895 18 294 17.1046 294 16C294 14.8954 294.895 14 296 14C297.105 14 298 14.8954 298 16Z" fill="#95A9F7"/>
<path d="M312 16C312 17.1046 311.105 18 310 18C308.895 18 308 17.1046 308 16C308 14.8954 308.895 14 310 14C311.105 14 312 14.8954 312 16Z" fill="#95A9F7"/>
<path d="M326 16C326 17.1046 325.105 18 324 18C322.895 18 322 17.1046 322 16C322 14.8954 322.895 14 324 14C325.105 14 326 14.8954 326 16Z" fill="#95A9F7"/>
<path d="M4 30C4 31.1046 3.10457 32 2 32C0.89543 32 0 31.1046 0 30C0 28.8954 0.89543 28 2 28C3.10457 28 4 28.8954 4 30Z" fill="#95A9F7"/>
<path d="M18 30C18 31.1046 17.1046 32 16 32C14.8954 32 14 31.1046 14 30C14 28.8954 14.8954 28 16 28C17.1046 28 18 28.8954 18 30Z" fill="#95A9F7"/>
<path d="M32 30C32 31.1046 31.1046 32 30 32C28.8954 32 28 31.1046 28 30C28 28.8954 28.8954 28 30 28C31.1046 28 32 28.8954 32 30Z" fill="#95A9F7"/>
<path d="M46 30C46 31.1046 45.1046 32 44 32C42.8954 32 42 31.1046 42 30C42 28.8954 42.8954 28 44 28C45.1046 28 46 28.8954 46 30Z" fill="#95A9F7"/>
<path d="M60 30C60 31.1046 59.1046 32 58 32C56.8954 32 56 31.1046 56 30C56 28.8954 56.8954 28 58 28C59.1046 28 60 28.8954 60 30Z" fill="#95A9F7"/>
<path d="M74 30C74 31.1046 73.1046 32 72 32C70.8954 32 70 31.1046 70 30C70 28.8954 70.8954 28 72 28C73.1046 28 74 28.8954 74 30Z" fill="#95A9F7"/>
<path d="M88 30C88 31.1046 87.1046 32 86 32C84.8954 32 84 31.1046 84 30C84 28.8954 84.8954 28 86 28C87.1046 28 88 28.8954 88 30Z" fill="#95A9F7"/>
<path d="M102 30C102 31.1046 101.105 32 100 32C98.8954 32 98 31.1046 98 30C98 28.8954 98.8954 28 100 28C101.105 28 102 28.8954 102 30Z" fill="#95A9F7"/>
<path d="M116 30C116 31.1046 115.105 32 114 32C112.895 32 112 31.1046 112 30C112 28.8954 112.895 28 114 28C115.105 28 116 28.8954 116 30Z" fill="#95A9F7"/>
<path d="M130 30C130 31.1046 129.105 32 128 32C126.895 32 126 31.1046 126 30C126 28.8954 126.895 28 128 28C129.105 28 130 28.8954 130 30Z" fill="#95A9F7"/>
<path d="M144 30C144 31.1046 143.105 32 142 32C140.895 32 140 31.1046 140 30C140 28.8954 140.895 28 142 28C143.105 28 144 28.8954 144 30Z" fill="#95A9F7"/>
<path d="M158 30C158 31.1046 157.105 32 156 32C154.895 32 154 31.1046 154 30C154 28.8954 154.895 28 156 28C157.105 28 158 28.8954 158 30Z" fill="#95A9F7"/>
<path d="M172 30C172 31.1046 171.105 32 170 32C168.895 32 168 31.1046 168 30C168 28.8954 168.895 28 170 28C171.105 28 172 28.8954 172 30Z" fill="#95A9F7"/>
<path d="M186 30C186 31.1046 185.105 32 184 32C182.895 32 182 31.1046 182 30C182 28.8954 182.895 28 184 28C185.105 28 186 28.8954 186 30Z" fill="#95A9F7"/>
<path d="M200 30C200 31.1046 199.105 32 198 32C196.895 32 196 31.1046 196 30C196 28.8954 196.895 28 198 28C199.105 28 200 28.8954 200 30Z" fill="#95A9F7"/>
<path d="M214 30C214 31.1046 213.105 32 212 32C210.895 32 210 31.1046 210 30C210 28.8954 210.895 28 212 28C213.105 28 214 28.8954 214 30Z" fill="#95A9F7"/>
<path d="M228 30C228 31.1046 227.105 32 226 32C224.895 32 224 31.1046 224 30C224 28.8954 224.895 28 226 28C227.105 28 228 28.8954 228 30Z" fill="#95A9F7"/>
<path d="M242 30C242 31.1046 241.105 32 240 32C238.895 32 238 31.1046 238 30C238 28.8954 238.895 28 240 28C241.105 28 242 28.8954 242 30Z" fill="#95A9F7"/>
<path d="M256 30C256 31.1046 255.105 32 254 32C252.895 32 252 31.1046 252 30C252 28.8954 252.895 28 254 28C255.105 28 256 28.8954 256 30Z" fill="#95A9F7"/>
<path d="M270 30C270 31.1046 269.105 32 268 32C266.895 32 266 31.1046 266 30C266 28.8954 266.895 28 268 28C269.105 28 270 28.8954 270 30Z" fill="#95A9F7"/>
<path d="M284 30C284 31.1046 283.105 32 282 32C280.895 32 280 31.1046 280 30C280 28.8954 280.895 28 282 28C283.105 28 284 28.8954 284 30Z" fill="#95A9F7"/>
<path d="M298 30C298 31.1046 297.105 32 296 32C294.895 32 294 31.1046 294 30C294 28.8954 294.895 28 296 28C297.105 28 298 28.8954 298 30Z" fill="#95A9F7"/>
<path d="M312 30C312 31.1046 311.105 32 310 32C308.895 32 308 31.1046 308 30C308 28.8954 308.895 28 310 28C311.105 28 312 28.8954 312 30Z" fill="#95A9F7"/>
<path d="M326 30C326 31.1046 325.105 32 324 32C322.895 32 322 31.1046 322 30C322 28.8954 322.895 28 324 28C325.105 28 326 28.8954 326 30Z" fill="#95A9F7"/>
<path d="M4 44C4 45.1046 3.10457 46 2 46C0.89543 46 0 45.1046 0 44C0 42.8954 0.89543 42 2 42C3.10457 42 4 42.8954 4 44Z" fill="#95A9F7"/>
<path d="M18 44C18 45.1046 17.1046 46 16 46C14.8954 46 14 45.1046 14 44C14 42.8954 14.8954 42 16 42C17.1046 42 18 42.8954 18 44Z" fill="#95A9F7"/>
<path d="M32 44C32 45.1046 31.1046 46 30 46C28.8954 46 28 45.1046 28 44C28 42.8954 28.8954 42 30 42C31.1046 42 32 42.8954 32 44Z" fill="#95A9F7"/>
<path d="M46 44C46 45.1046 45.1046 46 44 46C42.8954 46 42 45.1046 42 44C42 42.8954 42.8954 42 44 42C45.1046 42 46 42.8954 46 44Z" fill="#95A9F7"/>
<path d="M60 44C60 45.1046 59.1046 46 58 46C56.8954 46 56 45.1046 56 44C56 42.8954 56.8954 42 58 42C59.1046 42 60 42.8954 60 44Z" fill="#95A9F7"/>
<path d="M74 44C74 45.1046 73.1046 46 72 46C70.8954 46 70 45.1046 70 44C70 42.8954 70.8954 42 72 42C73.1046 42 74 42.8954 74 44Z" fill="#95A9F7"/>
<path d="M88 44C88 45.1046 87.1046 46 86 46C84.8954 46 84 45.1046 84 44C84 42.8954 84.8954 42 86 42C87.1046 42 88 42.8954 88 44Z" fill="#95A9F7"/>
<path d="M102 44C102 45.1046 101.105 46 100 46C98.8954 46 98 45.1046 98 44C98 42.8954 98.8954 42 100 42C101.105 42 102 42.8954 102 44Z" fill="#95A9F7"/>
<path d="M116 44C116 45.1046 115.105 46 114 46C112.895 46 112 45.1046 112 44C112 42.8954 112.895 42 114 42C115.105 42 116 42.8954 116 44Z" fill="#95A9F7"/>
<path d="M130 44C130 45.1046 129.105 46 128 46C126.895 46 126 45.1046 126 44C126 42.8954 126.895 42 128 42C129.105 42 130 42.8954 130 44Z" fill="#95A9F7"/>
<path d="M144 44C144 45.1046 143.105 46 142 46C140.895 46 140 45.1046 140 44C140 42.8954 140.895 42 142 42C143.105 42 144 42.8954 144 44Z" fill="#95A9F7"/>
<path d="M158 44C158 45.1046 157.105 46 156 46C154.895 46 154 45.1046 154 44C154 42.8954 154.895 42 156 42C157.105 42 158 42.8954 158 44Z" fill="#95A9F7"/>
<path d="M172 44C172 45.1046 171.105 46 170 46C168.895 46 168 45.1046 168 44C168 42.8954 168.895 42 170 42C171.105 42 172 42.8954 172 44Z" fill="#95A9F7"/>
<path d="M186 44C186 45.1046 185.105 46 184 46C182.895 46 182 45.1046 182 44C182 42.8954 182.895 42 184 42C185.105 42 186 42.8954 186 44Z" fill="#95A9F7"/>
<path d="M200 44C200 45.1046 199.105 46 198 46C196.895 46 196 45.1046 196 44C196 42.8954 196.895 42 198 42C199.105 42 200 42.8954 200 44Z" fill="#95A9F7"/>
<path d="M214 44C214 45.1046 213.105 46 212 46C210.895 46 210 45.1046 210 44C210 42.8954 210.895 42 212 42C213.105 42 214 42.8954 214 44Z" fill="#95A9F7"/>
<path d="M228 44C228 45.1046 227.105 46 226 46C224.895 46 224 45.1046 224 44C224 42.8954 224.895 42 226 42C227.105 42 228 42.8954 228 44Z" fill="#95A9F7"/>
<path d="M242 44C242 45.1046 241.105 46 240 46C238.895 46 238 45.1046 238 44C238 42.8954 238.895 42 240 42C241.105 42 242 42.8954 242 44Z" fill="#95A9F7"/>
<path d="M256 44C256 45.1046 255.105 46 254 46C252.895 46 252 45.1046 252 44C252 42.8954 252.895 42 254 42C255.105 42 256 42.8954 256 44Z" fill="#95A9F7"/>
<path d="M270 44C270 45.1046 269.105 46 268 46C266.895 46 266 45.1046 266 44C266 42.8954 266.895 42 268 42C269.105 42 270 42.8954 270 44Z" fill="#95A9F7"/>
<path d="M284 44C284 45.1046 283.105 46 282 46C280.895 46 280 45.1046 280 44C280 42.8954 280.895 42 282 42C283.105 42 284 42.8954 284 44Z" fill="#95A9F7"/>
<path d="M298 44C298 45.1046 297.105 46 296 46C294.895 46 294 45.1046 294 44C294 42.8954 294.895 42 296 42C297.105 42 298 42.8954 298 44Z" fill="#95A9F7"/>
<path d="M312 44C312 45.1046 311.105 46 310 46C308.895 46 308 45.1046 308 44C308 42.8954 308.895 42 310 42C311.105 42 312 42.8954 312 44Z" fill="#95A9F7"/>
<path d="M326 44C326 45.1046 325.105 46 324 46C322.895 46 322 45.1046 322 44C322 42.8954 322.895 42 324 42C325.105 42 326 42.8954 326 44Z" fill="#95A9F7"/>
<path d="M4 58C4 59.1046 3.10457 60 2 60C0.89543 60 0 59.1046 0 58C0 56.8954 0.89543 56 2 56C3.10457 56 4 56.8954 4 58Z" fill="#95A9F7"/>
<path d="M18 58C18 59.1046 17.1046 60 16 60C14.8954 60 14 59.1046 14 58C14 56.8954 14.8954 56 16 56C17.1046 56 18 56.8954 18 58Z" fill="#95A9F7"/>
<path d="M32 58C32 59.1046 31.1046 60 30 60C28.8954 60 28 59.1046 28 58C28 56.8954 28.8954 56 30 56C31.1046 56 32 56.8954 32 58Z" fill="#95A9F7"/>
<path d="M46 58C46 59.1046 45.1046 60 44 60C42.8954 60 42 59.1046 42 58C42 56.8954 42.8954 56 44 56C45.1046 56 46 56.8954 46 58Z" fill="#95A9F7"/>
<path d="M60 58C60 59.1046 59.1046 60 58 60C56.8954 60 56 59.1046 56 58C56 56.8954 56.8954 56 58 56C59.1046 56 60 56.8954 60 58Z" fill="#95A9F7"/>
<path d="M74 58C74 59.1046 73.1046 60 72 60C70.8954 60 70 59.1046 70 58C70 56.8954 70.8954 56 72 56C73.1046 56 74 56.8954 74 58Z" fill="#95A9F7"/>
<path d="M88 58C88 59.1046 87.1046 60 86 60C84.8954 60 84 59.1046 84 58C84 56.8954 84.8954 56 86 56C87.1046 56 88 56.8954 88 58Z" fill="#95A9F7"/>
<path d="M102 58C102 59.1046 101.105 60 100 60C98.8954 60 98 59.1046 98 58C98 56.8954 98.8954 56 100 56C101.105 56 102 56.8954 102 58Z" fill="#95A9F7"/>
<path d="M116 58C116 59.1046 115.105 60 114 60C112.895 60 112 59.1046 112 58C112 56.8954 112.895 56 114 56C115.105 56 116 56.8954 116 58Z" fill="#95A9F7"/>
<path d="M130 58C130 59.1046 129.105 60 128 60C126.895 60 126 59.1046 126 58C126 56.8954 126.895 56 128 56C129.105 56 130 56.8954 130 58Z" fill="#95A9F7"/>
<path d="M144 58C144 59.1046 143.105 60 142 60C140.895 60 140 59.1046 140 58C140 56.8954 140.895 56 142 56C143.105 56 144 56.8954 144 58Z" fill="#95A9F7"/>
<path d="M158 58C158 59.1046 157.105 60 156 60C154.895 60 154 59.1046 154 58C154 56.8954 154.895 56 156 56C157.105 56 158 56.8954 158 58Z" fill="#95A9F7"/>
<path d="M172 58C172 59.1046 171.105 60 170 60C168.895 60 168 59.1046 168 58C168 56.8954 168.895 56 170 56C171.105 56 172 56.8954 172 58Z" fill="#95A9F7"/>
<path d="M186 58C186 59.1046 185.105 60 184 60C182.895 60 182 59.1046 182 58C182 56.8954 182.895 56 184 56C185.105 56 186 56.8954 186 58Z" fill="#95A9F7"/>
<path d="M200 58C200 59.1046 199.105 60 198 60C196.895 60 196 59.1046 196 58C196 56.8954 196.895 56 198 56C199.105 56 200 56.8954 200 58Z" fill="#95A9F7"/>
<path d="M214 58C214 59.1046 213.105 60 212 60C210.895 60 210 59.1046 210 58C210 56.8954 210.895 56 212 56C213.105 56 214 56.8954 214 58Z" fill="#95A9F7"/>
<path d="M228 58C228 59.1046 227.105 60 226 60C224.895 60 224 59.1046 224 58C224 56.8954 224.895 56 226 56C227.105 56 228 56.8954 228 58Z" fill="#95A9F7"/>
<path d="M242 58C242 59.1046 241.105 60 240 60C238.895 60 238 59.1046 238 58C238 56.8954 238.895 56 240 56C241.105 56 242 56.8954 242 58Z" fill="#95A9F7"/>
<path d="M256 58C256 59.1046 255.105 60 254 60C252.895 60 252 59.1046 252 58C252 56.8954 252.895 56 254 56C255.105 56 256 56.8954 256 58Z" fill="#95A9F7"/>
<path d="M270 58C270 59.1046 269.105 60 268 60C266.895 60 266 59.1046 266 58C266 56.8954 266.895 56 268 56C269.105 56 270 56.8954 270 58Z" fill="#95A9F7"/>
<path d="M284 58C284 59.1046 283.105 60 282 60C280.895 60 280 59.1046 280 58C280 56.8954 280.895 56 282 56C283.105 56 284 56.8954 284 58Z" fill="#95A9F7"/>
<path d="M298 58C298 59.1046 297.105 60 296 60C294.895 60 294 59.1046 294 58C294 56.8954 294.895 56 296 56C297.105 56 298 56.8954 298 58Z" fill="#95A9F7"/>
<path d="M312 58C312 59.1046 311.105 60 310 60C308.895 60 308 59.1046 308 58C308 56.8954 308.895 56 310 56C311.105 56 312 56.8954 312 58Z" fill="#95A9F7"/>
<path d="M326 58C326 59.1046 325.105 60 324 60C322.895 60 322 59.1046 322 58C322 56.8954 322.895 56 324 56C325.105 56 326 56.8954 326 58Z" fill="#95A9F7"/>
<path d="M4 72C4 73.1046 3.10457 74 2 74C0.89543 74 0 73.1046 0 72C0 70.8954 0.89543 70 2 70C3.10457 70 4 70.8954 4 72Z" fill="#95A9F7"/>
<path d="M18 72C18 73.1046 17.1046 74 16 74C14.8954 74 14 73.1046 14 72C14 70.8954 14.8954 70 16 70C17.1046 70 18 70.8954 18 72Z" fill="#95A9F7"/>
<path d="M32 72C32 73.1046 31.1046 74 30 74C28.8954 74 28 73.1046 28 72C28 70.8954 28.8954 70 30 70C31.1046 70 32 70.8954 32 72Z" fill="#95A9F7"/>
<path d="M46 72C46 73.1046 45.1046 74 44 74C42.8954 74 42 73.1046 42 72C42 70.8954 42.8954 70 44 70C45.1046 70 46 70.8954 46 72Z" fill="#95A9F7"/>
<path d="M60 72C60 73.1046 59.1046 74 58 74C56.8954 74 56 73.1046 56 72C56 70.8954 56.8954 70 58 70C59.1046 70 60 70.8954 60 72Z" fill="#95A9F7"/>
<path d="M74 72C74 73.1046 73.1046 74 72 74C70.8954 74 70 73.1046 70 72C70 70.8954 70.8954 70 72 70C73.1046 70 74 70.8954 74 72Z" fill="#95A9F7"/>
<path d="M88 72C88 73.1046 87.1046 74 86 74C84.8954 74 84 73.1046 84 72C84 70.8954 84.8954 70 86 70C87.1046 70 88 70.8954 88 72Z" fill="#95A9F7"/>
<path d="M102 72C102 73.1046 101.105 74 100 74C98.8954 74 98 73.1046 98 72C98 70.8954 98.8954 70 100 70C101.105 70 102 70.8954 102 72Z" fill="#95A9F7"/>
<path d="M116 72C116 73.1046 115.105 74 114 74C112.895 74 112 73.1046 112 72C112 70.8954 112.895 70 114 70C115.105 70 116 70.8954 116 72Z" fill="#95A9F7"/>
<path d="M130 72C130 73.1046 129.105 74 128 74C126.895 74 126 73.1046 126 72C126 70.8954 126.895 70 128 70C129.105 70 130 70.8954 130 72Z" fill="#95A9F7"/>
<path d="M144 72C144 73.1046 143.105 74 142 74C140.895 74 140 73.1046 140 72C140 70.8954 140.895 70 142 70C143.105 70 144 70.8954 144 72Z" fill="#95A9F7"/>
<path d="M158 72C158 73.1046 157.105 74 156 74C154.895 74 154 73.1046 154 72C154 70.8954 154.895 70 156 70C157.105 70 158 70.8954 158 72Z" fill="#95A9F7"/>
<path d="M172 72C172 73.1046 171.105 74 170 74C168.895 74 168 73.1046 168 72C168 70.8954 168.895 70 170 70C171.105 70 172 70.8954 172 72Z" fill="#95A9F7"/>
<path d="M186 72C186 73.1046 185.105 74 184 74C182.895 74 182 73.1046 182 72C182 70.8954 182.895 70 184 70C185.105 70 186 70.8954 186 72Z" fill="#95A9F7"/>
<path d="M200 72C200 73.1046 199.105 74 198 74C196.895 74 196 73.1046 196 72C196 70.8954 196.895 70 198 70C199.105 70 200 70.8954 200 72Z" fill="#95A9F7"/>
<path d="M214 72C214 73.1046 213.105 74 212 74C210.895 74 210 73.1046 210 72C210 70.8954 210.895 70 212 70C213.105 70 214 70.8954 214 72Z" fill="#95A9F7"/>
<path d="M228 72C228 73.1046 227.105 74 226 74C224.895 74 224 73.1046 224 72C224 70.8954 224.895 70 226 70C227.105 70 228 70.8954 228 72Z" fill="#95A9F7"/>
<path d="M242 72C242 73.1046 241.105 74 240 74C238.895 74 238 73.1046 238 72C238 70.8954 238.895 70 240 70C241.105 70 242 70.8954 242 72Z" fill="#95A9F7"/>
<path d="M256 72C256 73.1046 255.105 74 254 74C252.895 74 252 73.1046 252 72C252 70.8954 252.895 70 254 70C255.105 70 256 70.8954 256 72Z" fill="#95A9F7"/>
<path d="M270 72C270 73.1046 269.105 74 268 74C266.895 74 266 73.1046 266 72C266 70.8954 266.895 70 268 70C269.105 70 270 70.8954 270 72Z" fill="#95A9F7"/>
<path d="M284 72C284 73.1046 283.105 74 282 74C280.895 74 280 73.1046 280 72C280 70.8954 280.895 70 282 70C283.105 70 284 70.8954 284 72Z" fill="#95A9F7"/>
<path d="M298 72C298 73.1046 297.105 74 296 74C294.895 74 294 73.1046 294 72C294 70.8954 294.895 70 296 70C297.105 70 298 70.8954 298 72Z" fill="#95A9F7"/>
<path d="M312 72C312 73.1046 311.105 74 310 74C308.895 74 308 73.1046 308 72C308 70.8954 308.895 70 310 70C311.105 70 312 70.8954 312 72Z" fill="#95A9F7"/>
<path d="M326 72C326 73.1046 325.105 74 324 74C322.895 74 322 73.1046 322 72C322 70.8954 322.895 70 324 70C325.105 70 326 70.8954 326 72Z" fill="#95A9F7"/>
<path d="M4 86C4 87.1046 3.10457 88 2 88C0.89543 88 0 87.1046 0 86C0 84.8954 0.89543 84 2 84C3.10457 84 4 84.8954 4 86Z" fill="#95A9F7"/>
<path d="M18 86C18 87.1046 17.1046 88 16 88C14.8954 88 14 87.1046 14 86C14 84.8954 14.8954 84 16 84C17.1046 84 18 84.8954 18 86Z" fill="#95A9F7"/>
<path d="M32 86C32 87.1046 31.1046 88 30 88C28.8954 88 28 87.1046 28 86C28 84.8954 28.8954 84 30 84C31.1046 84 32 84.8954 32 86Z" fill="#95A9F7"/>
<path d="M46 86C46 87.1046 45.1046 88 44 88C42.8954 88 42 87.1046 42 86C42 84.8954 42.8954 84 44 84C45.1046 84 46 84.8954 46 86Z" fill="#95A9F7"/>
<path d="M60 86C60 87.1046 59.1046 88 58 88C56.8954 88 56 87.1046 56 86C56 84.8954 56.8954 84 58 84C59.1046 84 60 84.8954 60 86Z" fill="#95A9F7"/>
<path d="M74 86C74 87.1046 73.1046 88 72 88C70.8954 88 70 87.1046 70 86C70 84.8954 70.8954 84 72 84C73.1046 84 74 84.8954 74 86Z" fill="#95A9F7"/>
<path d="M88 86C88 87.1046 87.1046 88 86 88C84.8954 88 84 87.1046 84 86C84 84.8954 84.8954 84 86 84C87.1046 84 88 84.8954 88 86Z" fill="#95A9F7"/>
<path d="M102 86C102 87.1046 101.105 88 100 88C98.8954 88 98 87.1046 98 86C98 84.8954 98.8954 84 100 84C101.105 84 102 84.8954 102 86Z" fill="#95A9F7"/>
<path d="M116 86C116 87.1046 115.105 88 114 88C112.895 88 112 87.1046 112 86C112 84.8954 112.895 84 114 84C115.105 84 116 84.8954 116 86Z" fill="#95A9F7"/>
<path d="M130 86C130 87.1046 129.105 88 128 88C126.895 88 126 87.1046 126 86C126 84.8954 126.895 84 128 84C129.105 84 130 84.8954 130 86Z" fill="#95A9F7"/>
<path d="M144 86C144 87.1046 143.105 88 142 88C140.895 88 140 87.1046 140 86C140 84.8954 140.895 84 142 84C143.105 84 144 84.8954 144 86Z" fill="#95A9F7"/>
<path d="M158 86C158 87.1046 157.105 88 156 88C154.895 88 154 87.1046 154 86C154 84.8954 154.895 84 156 84C157.105 84 158 84.8954 158 86Z" fill="#95A9F7"/>
<path d="M172 86C172 87.1046 171.105 88 170 88C168.895 88 168 87.1046 168 86C168 84.8954 168.895 84 170 84C171.105 84 172 84.8954 172 86Z" fill="#95A9F7"/>
<path d="M186 86C186 87.1046 185.105 88 184 88C182.895 88 182 87.1046 182 86C182 84.8954 182.895 84 184 84C185.105 84 186 84.8954 186 86Z" fill="#95A9F7"/>
<path d="M200 86C200 87.1046 199.105 88 198 88C196.895 88 196 87.1046 196 86C196 84.8954 196.895 84 198 84C199.105 84 200 84.8954 200 86Z" fill="#95A9F7"/>
<path d="M214 86C214 87.1046 213.105 88 212 88C210.895 88 210 87.1046 210 86C210 84.8954 210.895 84 212 84C213.105 84 214 84.8954 214 86Z" fill="#95A9F7"/>
<path d="M228 86C228 87.1046 227.105 88 226 88C224.895 88 224 87.1046 224 86C224 84.8954 224.895 84 226 84C227.105 84 228 84.8954 228 86Z" fill="#95A9F7"/>
<path d="M242 86C242 87.1046 241.105 88 240 88C238.895 88 238 87.1046 238 86C238 84.8954 238.895 84 240 84C241.105 84 242 84.8954 242 86Z" fill="#95A9F7"/>
<path d="M256 86C256 87.1046 255.105 88 254 88C252.895 88 252 87.1046 252 86C252 84.8954 252.895 84 254 84C255.105 84 256 84.8954 256 86Z" fill="#95A9F7"/>
<path d="M270 86C270 87.1046 269.105 88 268 88C266.895 88 266 87.1046 266 86C266 84.8954 266.895 84 268 84C269.105 84 270 84.8954 270 86Z" fill="#95A9F7"/>
<path d="M284 86C284 87.1046 283.105 88 282 88C280.895 88 280 87.1046 280 86C280 84.8954 280.895 84 282 84C283.105 84 284 84.8954 284 86Z" fill="#95A9F7"/>
<path d="M298 86C298 87.1046 297.105 88 296 88C294.895 88 294 87.1046 294 86C294 84.8954 294.895 84 296 84C297.105 84 298 84.8954 298 86Z" fill="#95A9F7"/>
<path d="M312 86C312 87.1046 311.105 88 310 88C308.895 88 308 87.1046 308 86C308 84.8954 308.895 84 310 84C311.105 84 312 84.8954 312 86Z" fill="#95A9F7"/>
<path d="M326 86C326 87.1046 325.105 88 324 88C322.895 88 322 87.1046 322 86C322 84.8954 322.895 84 324 84C325.105 84 326 84.8954 326 86Z" fill="#95A9F7"/>
<path d="M4 100C4 101.105 3.10457 102 2 102C0.89543 102 0 101.105 0 100C0 98.8954 0.89543 98 2 98C3.10457 98 4 98.8954 4 100Z" fill="#95A9F7"/>
<path d="M18 100C18 101.105 17.1046 102 16 102C14.8954 102 14 101.105 14 100C14 98.8954 14.8954 98 16 98C17.1046 98 18 98.8954 18 100Z" fill="#95A9F7"/>
<path d="M32 100C32 101.105 31.1046 102 30 102C28.8954 102 28 101.105 28 100C28 98.8954 28.8954 98 30 98C31.1046 98 32 98.8954 32 100Z" fill="#95A9F7"/>
<path d="M46 100C46 101.105 45.1046 102 44 102C42.8954 102 42 101.105 42 100C42 98.8954 42.8954 98 44 98C45.1046 98 46 98.8954 46 100Z" fill="#95A9F7"/>
<path d="M60 100C60 101.105 59.1046 102 58 102C56.8954 102 56 101.105 56 100C56 98.8954 56.8954 98 58 98C59.1046 98 60 98.8954 60 100Z" fill="#95A9F7"/>
<path d="M74 100C74 101.105 73.1046 102 72 102C70.8954 102 70 101.105 70 100C70 98.8954 70.8954 98 72 98C73.1046 98 74 98.8954 74 100Z" fill="#95A9F7"/>
<path d="M88 100C88 101.105 87.1046 102 86 102C84.8954 102 84 101.105 84 100C84 98.8954 84.8954 98 86 98C87.1046 98 88 98.8954 88 100Z" fill="#95A9F7"/>
<path d="M102 100C102 101.105 101.105 102 100 102C98.8954 102 98 101.105 98 100C98 98.8954 98.8954 98 100 98C101.105 98 102 98.8954 102 100Z" fill="#95A9F7"/>
<path d="M116 100C116 101.105 115.105 102 114 102C112.895 102 112 101.105 112 100C112 98.8954 112.895 98 114 98C115.105 98 116 98.8954 116 100Z" fill="#95A9F7"/>
<path d="M130 100C130 101.105 129.105 102 128 102C126.895 102 126 101.105 126 100C126 98.8954 126.895 98 128 98C129.105 98 130 98.8954 130 100Z" fill="#95A9F7"/>
<path d="M144 100C144 101.105 143.105 102 142 102C140.895 102 140 101.105 140 100C140 98.8954 140.895 98 142 98C143.105 98 144 98.8954 144 100Z" fill="#95A9F7"/>
<path d="M158 100C158 101.105 157.105 102 156 102C154.895 102 154 101.105 154 100C154 98.8954 154.895 98 156 98C157.105 98 158 98.8954 158 100Z" fill="#95A9F7"/>
<path d="M172 100C172 101.105 171.105 102 170 102C168.895 102 168 101.105 168 100C168 98.8954 168.895 98 170 98C171.105 98 172 98.8954 172 100Z" fill="#95A9F7"/>
<path d="M186 100C186 101.105 185.105 102 184 102C182.895 102 182 101.105 182 100C182 98.8954 182.895 98 184 98C185.105 98 186 98.8954 186 100Z" fill="#95A9F7"/>
<path d="M200 100C200 101.105 199.105 102 198 102C196.895 102 196 101.105 196 100C196 98.8954 196.895 98 198 98C199.105 98 200 98.8954 200 100Z" fill="#95A9F7"/>
<path d="M214 100C214 101.105 213.105 102 212 102C210.895 102 210 101.105 210 100C210 98.8954 210.895 98 212 98C213.105 98 214 98.8954 214 100Z" fill="#95A9F7"/>
<path d="M228 100C228 101.105 227.105 102 226 102C224.895 102 224 101.105 224 100C224 98.8954 224.895 98 226 98C227.105 98 228 98.8954 228 100Z" fill="#95A9F7"/>
<path d="M242 100C242 101.105 241.105 102 240 102C238.895 102 238 101.105 238 100C238 98.8954 238.895 98 240 98C241.105 98 242 98.8954 242 100Z" fill="#95A9F7"/>
<path d="M256 100C256 101.105 255.105 102 254 102C252.895 102 252 101.105 252 100C252 98.8954 252.895 98 254 98C255.105 98 256 98.8954 256 100Z" fill="#95A9F7"/>
<path d="M270 100C270 101.105 269.105 102 268 102C266.895 102 266 101.105 266 100C266 98.8954 266.895 98 268 98C269.105 98 270 98.8954 270 100Z" fill="#95A9F7"/>
<path d="M284 100C284 101.105 283.105 102 282 102C280.895 102 280 101.105 280 100C280 98.8954 280.895 98 282 98C283.105 98 284 98.8954 284 100Z" fill="#95A9F7"/>
<path d="M298 100C298 101.105 297.105 102 296 102C294.895 102 294 101.105 294 100C294 98.8954 294.895 98 296 98C297.105 98 298 98.8954 298 100Z" fill="#95A9F7"/>
<path d="M312 100C312 101.105 311.105 102 310 102C308.895 102 308 101.105 308 100C308 98.8954 308.895 98 310 98C311.105 98 312 98.8954 312 100Z" fill="#95A9F7"/>
<path d="M326 100C326 101.105 325.105 102 324 102C322.895 102 322 101.105 322 100C322 98.8954 322.895 98 324 98C325.105 98 326 98.8954 326 100Z" fill="#95A9F7"/>
<path d="M4 114C4 115.105 3.10457 116 2 116C0.89543 116 0 115.105 0 114C0 112.895 0.89543 112 2 112C3.10457 112 4 112.895 4 114Z" fill="#95A9F7"/>
<path d="M18 114C18 115.105 17.1046 116 16 116C14.8954 116 14 115.105 14 114C14 112.895 14.8954 112 16 112C17.1046 112 18 112.895 18 114Z" fill="#95A9F7"/>
<path d="M32 114C32 115.105 31.1046 116 30 116C28.8954 116 28 115.105 28 114C28 112.895 28.8954 112 30 112C31.1046 112 32 112.895 32 114Z" fill="#95A9F7"/>
<path d="M46 114C46 115.105 45.1046 116 44 116C42.8954 116 42 115.105 42 114C42 112.895 42.8954 112 44 112C45.1046 112 46 112.895 46 114Z" fill="#95A9F7"/>
<path d="M60 114C60 115.105 59.1046 116 58 116C56.8954 116 56 115.105 56 114C56 112.895 56.8954 112 58 112C59.1046 112 60 112.895 60 114Z" fill="#95A9F7"/>
<path d="M74 114C74 115.105 73.1046 116 72 116C70.8954 116 70 115.105 70 114C70 112.895 70.8954 112 72 112C73.1046 112 74 112.895 74 114Z" fill="#95A9F7"/>
<path d="M88 114C88 115.105 87.1046 116 86 116C84.8954 116 84 115.105 84 114C84 112.895 84.8954 112 86 112C87.1046 112 88 112.895 88 114Z" fill="#95A9F7"/>
<path d="M102 114C102 115.105 101.105 116 100 116C98.8954 116 98 115.105 98 114C98 112.895 98.8954 112 100 112C101.105 112 102 112.895 102 114Z" fill="#95A9F7"/>
<path d="M116 114C116 115.105 115.105 116 114 116C112.895 116 112 115.105 112 114C112 112.895 112.895 112 114 112C115.105 112 116 112.895 116 114Z" fill="#95A9F7"/>
<path d="M130 114C130 115.105 129.105 116 128 116C126.895 116 126 115.105 126 114C126 112.895 126.895 112 128 112C129.105 112 130 112.895 130 114Z" fill="#95A9F7"/>
<path d="M144 114C144 115.105 143.105 116 142 116C140.895 116 140 115.105 140 114C140 112.895 140.895 112 142 112C143.105 112 144 112.895 144 114Z" fill="#95A9F7"/>
<path d="M158 114C158 115.105 157.105 116 156 116C154.895 116 154 115.105 154 114C154 112.895 154.895 112 156 112C157.105 112 158 112.895 158 114Z" fill="#95A9F7"/>
<path d="M172 114C172 115.105 171.105 116 170 116C168.895 116 168 115.105 168 114C168 112.895 168.895 112 170 112C171.105 112 172 112.895 172 114Z" fill="#95A9F7"/>
<path d="M186 114C186 115.105 185.105 116 184 116C182.895 116 182 115.105 182 114C182 112.895 182.895 112 184 112C185.105 112 186 112.895 186 114Z" fill="#95A9F7"/>
<path d="M200 114C200 115.105 199.105 116 198 116C196.895 116 196 115.105 196 114C196 112.895 196.895 112 198 112C199.105 112 200 112.895 200 114Z" fill="#95A9F7"/>
<path d="M214 114C214 115.105 213.105 116 212 116C210.895 116 210 115.105 210 114C210 112.895 210.895 112 212 112C213.105 112 214 112.895 214 114Z" fill="#95A9F7"/>
<path d="M228 114C228 115.105 227.105 116 226 116C224.895 116 224 115.105 224 114C224 112.895 224.895 112 226 112C227.105 112 228 112.895 228 114Z" fill="#95A9F7"/>
<path d="M242 114C242 115.105 241.105 116 240 116C238.895 116 238 115.105 238 114C238 112.895 238.895 112 240 112C241.105 112 242 112.895 242 114Z" fill="#95A9F7"/>
<path d="M256 114C256 115.105 255.105 116 254 116C252.895 116 252 115.105 252 114C252 112.895 252.895 112 254 112C255.105 112 256 112.895 256 114Z" fill="#95A9F7"/>
<path d="M270 114C270 115.105 269.105 116 268 116C266.895 116 266 115.105 266 114C266 112.895 266.895 112 268 112C269.105 112 270 112.895 270 114Z" fill="#95A9F7"/>
<path d="M284 114C284 115.105 283.105 116 282 116C280.895 116 280 115.105 280 114C280 112.895 280.895 112 282 112C283.105 112 284 112.895 284 114Z" fill="#95A9F7"/>
<path d="M298 114C298 115.105 297.105 116 296 116C294.895 116 294 115.105 294 114C294 112.895 294.895 112 296 112C297.105 112 298 112.895 298 114Z" fill="#95A9F7"/>
<path d="M312 114C312 115.105 311.105 116 310 116C308.895 116 308 115.105 308 114C308 112.895 308.895 112 310 112C311.105 112 312 112.895 312 114Z" fill="#95A9F7"/>
<path d="M326 114C326 115.105 325.105 116 324 116C322.895 116 322 115.105 322 114C322 112.895 322.895 112 324 112C325.105 112 326 112.895 326 114Z" fill="#95A9F7"/>
<path d="M4 128C4 129.105 3.10457 130 2 130C0.89543 130 0 129.105 0 128C0 126.895 0.89543 126 2 126C3.10457 126 4 126.895 4 128Z" fill="#95A9F7"/>
<path d="M18 128C18 129.105 17.1046 130 16 130C14.8954 130 14 129.105 14 128C14 126.895 14.8954 126 16 126C17.1046 126 18 126.895 18 128Z" fill="#95A9F7"/>
<path d="M32 128C32 129.105 31.1046 130 30 130C28.8954 130 28 129.105 28 128C28 126.895 28.8954 126 30 126C31.1046 126 32 126.895 32 128Z" fill="#95A9F7"/>
<path d="M46 128C46 129.105 45.1046 130 44 130C42.8954 130 42 129.105 42 128C42 126.895 42.8954 126 44 126C45.1046 126 46 126.895 46 128Z" fill="#95A9F7"/>
<path d="M60 128C60 129.105 59.1046 130 58 130C56.8954 130 56 129.105 56 128C56 126.895 56.8954 126 58 126C59.1046 126 60 126.895 60 128Z" fill="#95A9F7"/>
<path d="M74 128C74 129.105 73.1046 130 72 130C70.8954 130 70 129.105 70 128C70 126.895 70.8954 126 72 126C73.1046 126 74 126.895 74 128Z" fill="#95A9F7"/>
<path d="M88 128C88 129.105 87.1046 130 86 130C84.8954 130 84 129.105 84 128C84 126.895 84.8954 126 86 126C87.1046 126 88 126.895 88 128Z" fill="#95A9F7"/>
<path d="M102 128C102 129.105 101.105 130 100 130C98.8954 130 98 129.105 98 128C98 126.895 98.8954 126 100 126C101.105 126 102 126.895 102 128Z" fill="#95A9F7"/>
<path d="M116 128C116 129.105 115.105 130 114 130C112.895 130 112 129.105 112 128C112 126.895 112.895 126 114 126C115.105 126 116 126.895 116 128Z" fill="#95A9F7"/>
<path d="M130 128C130 129.105 129.105 130 128 130C126.895 130 126 129.105 126 128C126 126.895 126.895 126 128 126C129.105 126 130 126.895 130 128Z" fill="#95A9F7"/>
<path d="M144 128C144 129.105 143.105 130 142 130C140.895 130 140 129.105 140 128C140 126.895 140.895 126 142 126C143.105 126 144 126.895 144 128Z" fill="#95A9F7"/>
<path d="M158 128C158 129.105 157.105 130 156 130C154.895 130 154 129.105 154 128C154 126.895 154.895 126 156 126C157.105 126 158 126.895 158 128Z" fill="#95A9F7"/>
<path d="M172 128C172 129.105 171.105 130 170 130C168.895 130 168 129.105 168 128C168 126.895 168.895 126 170 126C171.105 126 172 126.895 172 128Z" fill="#95A9F7"/>
<path d="M186 128C186 129.105 185.105 130 184 130C182.895 130 182 129.105 182 128C182 126.895 182.895 126 184 126C185.105 126 186 126.895 186 128Z" fill="#95A9F7"/>
<path d="M200 128C200 129.105 199.105 130 198 130C196.895 130 196 129.105 196 128C196 126.895 196.895 126 198 126C199.105 126 200 126.895 200 128Z" fill="#95A9F7"/>
<path d="M214 128C214 129.105 213.105 130 212 130C210.895 130 210 129.105 210 128C210 126.895 210.895 126 212 126C213.105 126 214 126.895 214 128Z" fill="#95A9F7"/>
<path d="M228 128C228 129.105 227.105 130 226 130C224.895 130 224 129.105 224 128C224 126.895 224.895 126 226 126C227.105 126 228 126.895 228 128Z" fill="#95A9F7"/>
<path d="M242 128C242 129.105 241.105 130 240 130C238.895 130 238 129.105 238 128C238 126.895 238.895 126 240 126C241.105 126 242 126.895 242 128Z" fill="#95A9F7"/>
<path d="M256 128C256 129.105 255.105 130 254 130C252.895 130 252 129.105 252 128C252 126.895 252.895 126 254 126C255.105 126 256 126.895 256 128Z" fill="#95A9F7"/>
<path d="M270 128C270 129.105 269.105 130 268 130C266.895 130 266 129.105 266 128C266 126.895 266.895 126 268 126C269.105 126 270 126.895 270 128Z" fill="#95A9F7"/>
<path d="M284 128C284 129.105 283.105 130 282 130C280.895 130 280 129.105 280 128C280 126.895 280.895 126 282 126C283.105 126 284 126.895 284 128Z" fill="#95A9F7"/>
<path d="M298 128C298 129.105 297.105 130 296 130C294.895 130 294 129.105 294 128C294 126.895 294.895 126 296 126C297.105 126 298 126.895 298 128Z" fill="#95A9F7"/>
<path d="M312 128C312 129.105 311.105 130 310 130C308.895 130 308 129.105 308 128C308 126.895 308.895 126 310 126C311.105 126 312 126.895 312 128Z" fill="#95A9F7"/>
<path d="M326 128C326 129.105 325.105 130 324 130C322.895 130 322 129.105 322 128C322 126.895 322.895 126 324 126C325.105 126 326 126.895 326 128Z" fill="#95A9F7"/>
<path d="M4 142C4 143.105 3.10457 144 2 144C0.89543 144 0 143.105 0 142C0 140.895 0.89543 140 2 140C3.10457 140 4 140.895 4 142Z" fill="#95A9F7"/>
<path d="M18 142C18 143.105 17.1046 144 16 144C14.8954 144 14 143.105 14 142C14 140.895 14.8954 140 16 140C17.1046 140 18 140.895 18 142Z" fill="#95A9F7"/>
<path d="M32 142C32 143.105 31.1046 144 30 144C28.8954 144 28 143.105 28 142C28 140.895 28.8954 140 30 140C31.1046 140 32 140.895 32 142Z" fill="#95A9F7"/>
<path d="M46 142C46 143.105 45.1046 144 44 144C42.8954 144 42 143.105 42 142C42 140.895 42.8954 140 44 140C45.1046 140 46 140.895 46 142Z" fill="#95A9F7"/>
<path d="M60 142C60 143.105 59.1046 144 58 144C56.8954 144 56 143.105 56 142C56 140.895 56.8954 140 58 140C59.1046 140 60 140.895 60 142Z" fill="#95A9F7"/>
<path d="M74 142C74 143.105 73.1046 144 72 144C70.8954 144 70 143.105 70 142C70 140.895 70.8954 140 72 140C73.1046 140 74 140.895 74 142Z" fill="#95A9F7"/>
<path d="M88 142C88 143.105 87.1046 144 86 144C84.8954 144 84 143.105 84 142C84 140.895 84.8954 140 86 140C87.1046 140 88 140.895 88 142Z" fill="#95A9F7"/>
<path d="M102 142C102 143.105 101.105 144 100 144C98.8954 144 98 143.105 98 142C98 140.895 98.8954 140 100 140C101.105 140 102 140.895 102 142Z" fill="#95A9F7"/>
<path d="M116 142C116 143.105 115.105 144 114 144C112.895 144 112 143.105 112 142C112 140.895 112.895 140 114 140C115.105 140 116 140.895 116 142Z" fill="#95A9F7"/>
<path d="M130 142C130 143.105 129.105 144 128 144C126.895 144 126 143.105 126 142C126 140.895 126.895 140 128 140C129.105 140 130 140.895 130 142Z" fill="#95A9F7"/>
<path d="M144 142C144 143.105 143.105 144 142 144C140.895 144 140 143.105 140 142C140 140.895 140.895 140 142 140C143.105 140 144 140.895 144 142Z" fill="#95A9F7"/>
<path d="M158 142C158 143.105 157.105 144 156 144C154.895 144 154 143.105 154 142C154 140.895 154.895 140 156 140C157.105 140 158 140.895 158 142Z" fill="#95A9F7"/>
<path d="M172 142C172 143.105 171.105 144 170 144C168.895 144 168 143.105 168 142C168 140.895 168.895 140 170 140C171.105 140 172 140.895 172 142Z" fill="#95A9F7"/>
<path d="M186 142C186 143.105 185.105 144 184 144C182.895 144 182 143.105 182 142C182 140.895 182.895 140 184 140C185.105 140 186 140.895 186 142Z" fill="#95A9F7"/>
<path d="M200 142C200 143.105 199.105 144 198 144C196.895 144 196 143.105 196 142C196 140.895 196.895 140 198 140C199.105 140 200 140.895 200 142Z" fill="#95A9F7"/>
<path d="M214 142C214 143.105 213.105 144 212 144C210.895 144 210 143.105 210 142C210 140.895 210.895 140 212 140C213.105 140 214 140.895 214 142Z" fill="#95A9F7"/>
<path d="M228 142C228 143.105 227.105 144 226 144C224.895 144 224 143.105 224 142C224 140.895 224.895 140 226 140C227.105 140 228 140.895 228 142Z" fill="#95A9F7"/>
<path d="M242 142C242 143.105 241.105 144 240 144C238.895 144 238 143.105 238 142C238 140.895 238.895 140 240 140C241.105 140 242 140.895 242 142Z" fill="#95A9F7"/>
<path d="M256 142C256 143.105 255.105 144 254 144C252.895 144 252 143.105 252 142C252 140.895 252.895 140 254 140C255.105 140 256 140.895 256 142Z" fill="#95A9F7"/>
<path d="M270 142C270 143.105 269.105 144 268 144C266.895 144 266 143.105 266 142C266 140.895 266.895 140 268 140C269.105 140 270 140.895 270 142Z" fill="#95A9F7"/>
<path d="M284 142C284 143.105 283.105 144 282 144C280.895 144 280 143.105 280 142C280 140.895 280.895 140 282 140C283.105 140 284 140.895 284 142Z" fill="#95A9F7"/>
<path d="M298 142C298 143.105 297.105 144 296 144C294.895 144 294 143.105 294 142C294 140.895 294.895 140 296 140C297.105 140 298 140.895 298 142Z" fill="#95A9F7"/>
<path d="M312 142C312 143.105 311.105 144 310 144C308.895 144 308 143.105 308 142C308 140.895 308.895 140 310 140C311.105 140 312 140.895 312 142Z" fill="#95A9F7"/>
<path d="M326 142C326 143.105 325.105 144 324 144C322.895 144 322 143.105 322 142C322 140.895 322.895 140 324 140C325.105 140 326 140.895 326 142Z" fill="#95A9F7"/>
<path d="M4 156C4 157.105 3.10457 158 2 158C0.89543 158 0 157.105 0 156C0 154.895 0.89543 154 2 154C3.10457 154 4 154.895 4 156Z" fill="#95A9F7"/>
<path d="M18 156C18 157.105 17.1046 158 16 158C14.8954 158 14 157.105 14 156C14 154.895 14.8954 154 16 154C17.1046 154 18 154.895 18 156Z" fill="#95A9F7"/>
<path d="M32 156C32 157.105 31.1046 158 30 158C28.8954 158 28 157.105 28 156C28 154.895 28.8954 154 30 154C31.1046 154 32 154.895 32 156Z" fill="#95A9F7"/>
<path d="M46 156C46 157.105 45.1046 158 44 158C42.8954 158 42 157.105 42 156C42 154.895 42.8954 154 44 154C45.1046 154 46 154.895 46 156Z" fill="#95A9F7"/>
<path d="M60 156C60 157.105 59.1046 158 58 158C56.8954 158 56 157.105 56 156C56 154.895 56.8954 154 58 154C59.1046 154 60 154.895 60 156Z" fill="#95A9F7"/>
<path d="M74 156C74 157.105 73.1046 158 72 158C70.8954 158 70 157.105 70 156C70 154.895 70.8954 154 72 154C73.1046 154 74 154.895 74 156Z" fill="#95A9F7"/>
<path d="M88 156C88 157.105 87.1046 158 86 158C84.8954 158 84 157.105 84 156C84 154.895 84.8954 154 86 154C87.1046 154 88 154.895 88 156Z" fill="#95A9F7"/>
<path d="M102 156C102 157.105 101.105 158 100 158C98.8954 158 98 157.105 98 156C98 154.895 98.8954 154 100 154C101.105 154 102 154.895 102 156Z" fill="#95A9F7"/>
<path d="M116 156C116 157.105 115.105 158 114 158C112.895 158 112 157.105 112 156C112 154.895 112.895 154 114 154C115.105 154 116 154.895 116 156Z" fill="#95A9F7"/>
<path d="M130 156C130 157.105 129.105 158 128 158C126.895 158 126 157.105 126 156C126 154.895 126.895 154 128 154C129.105 154 130 154.895 130 156Z" fill="#95A9F7"/>
<path d="M144 156C144 157.105 143.105 158 142 158C140.895 158 140 157.105 140 156C140 154.895 140.895 154 142 154C143.105 154 144 154.895 144 156Z" fill="#95A9F7"/>
<path d="M158 156C158 157.105 157.105 158 156 158C154.895 158 154 157.105 154 156C154 154.895 154.895 154 156 154C157.105 154 158 154.895 158 156Z" fill="#95A9F7"/>
<path d="M172 156C172 157.105 171.105 158 170 158C168.895 158 168 157.105 168 156C168 154.895 168.895 154 170 154C171.105 154 172 154.895 172 156Z" fill="#95A9F7"/>
<path d="M186 156C186 157.105 185.105 158 184 158C182.895 158 182 157.105 182 156C182 154.895 182.895 154 184 154C185.105 154 186 154.895 186 156Z" fill="#95A9F7"/>
<path d="M200 156C200 157.105 199.105 158 198 158C196.895 158 196 157.105 196 156C196 154.895 196.895 154 198 154C199.105 154 200 154.895 200 156Z" fill="#95A9F7"/>
<path d="M214 156C214 157.105 213.105 158 212 158C210.895 158 210 157.105 210 156C210 154.895 210.895 154 212 154C213.105 154 214 154.895 214 156Z" fill="#95A9F7"/>
<path d="M228 156C228 157.105 227.105 158 226 158C224.895 158 224 157.105 224 156C224 154.895 224.895 154 226 154C227.105 154 228 154.895 228 156Z" fill="#95A9F7"/>
<path d="M242 156C242 157.105 241.105 158 240 158C238.895 158 238 157.105 238 156C238 154.895 238.895 154 240 154C241.105 154 242 154.895 242 156Z" fill="#95A9F7"/>
<path d="M256 156C256 157.105 255.105 158 254 158C252.895 158 252 157.105 252 156C252 154.895 252.895 154 254 154C255.105 154 256 154.895 256 156Z" fill="#95A9F7"/>
<path d="M270 156C270 157.105 269.105 158 268 158C266.895 158 266 157.105 266 156C266 154.895 266.895 154 268 154C269.105 154 270 154.895 270 156Z" fill="#95A9F7"/>
<path d="M284 156C284 157.105 283.105 158 282 158C280.895 158 280 157.105 280 156C280 154.895 280.895 154 282 154C283.105 154 284 154.895 284 156Z" fill="#95A9F7"/>
<path d="M298 156C298 157.105 297.105 158 296 158C294.895 158 294 157.105 294 156C294 154.895 294.895 154 296 154C297.105 154 298 154.895 298 156Z" fill="#95A9F7"/>
<path d="M312 156C312 157.105 311.105 158 310 158C308.895 158 308 157.105 308 156C308 154.895 308.895 154 310 154C311.105 154 312 154.895 312 156Z" fill="#95A9F7"/>
<path d="M326 156C326 157.105 325.105 158 324 158C322.895 158 322 157.105 322 156C322 154.895 322.895 154 324 154C325.105 154 326 154.895 326 156Z" fill="#95A9F7"/>
</g>
</svg>
